<svg width="1123" height="332" viewBox="0 0 1123 332" fill="none" xmlns="http://www.w3.org/2000/svg">
<rect width="1123" height="332" fill="#28292F"/>
<path d="M466.314 121.123C429.744 121.123 402.055 148.29 402.055 184.163C402.055 220.21 429.744 247.377 466.314 247.377C502.884 247.377 530.572 220.21 530.572 184.163C530.572 148.29 502.884 121.123 466.314 121.123ZM466.314 209.239C451.86 209.239 441.237 198.965 441.237 184.163C441.237 169.535 451.86 159.086 466.314 159.086C480.768 159.086 491.39 169.535 491.39 184.163C491.39 198.965 480.768 209.239 466.314 209.239Z" fill="#D11E43"/>
<path d="M617.31 123.213V184.86L578.999 123.213H543.648V245.113H582.83V183.466L621.141 245.113H656.492V123.213H617.31Z" fill="white"/>
<path d="M713.097 209.239V123.213H673.915V245.113H758.548V209.239H713.097Z" fill="white"/>
<path d="M770.679 123.213V245.113H809.861V123.213H770.679Z" fill="white"/>
<path d="M900.972 123.213V184.86L862.661 123.213H827.31V245.113H866.492V183.466L904.803 245.113H940.154V123.213H900.972Z" fill="white"/>
<path d="M996.758 212.374V197.746H1036.29V169.535H996.758V155.952H1041.86V123.213H957.576V245.113H1043.43V212.374H996.758Z" fill="white"/>
<path d="M485.494 50C486.692 49.6679 487.057 50.5023 487.454 51.207C492.338 59.8655 497.173 68.5567 502.114 77.1828C503.718 79.9853 501.166 80.1715 499.871 80.9004C479.435 92.4505 458.959 103.936 438.491 115.429C428.74 120.905 418.947 126.323 409.268 131.912C406.935 133.256 405.696 133.467 404.238 130.713C399.961 122.67 395.442 114.749 390.841 106.884C389.586 104.73 389.707 103.669 391.991 102.397C422.608 85.2824 453.176 68.0787 483.76 50.8993C484.36 50.5591 484.983 50.2594 485.502 49.9921L485.494 50Z" fill="#D11E43"/>
<path d="M166.951 241.022H209.093L168.344 119.122H120.629L79.8796 241.022H122.022L127.246 222.215H161.727L166.951 241.022ZM134.735 195.048L144.486 159.697L154.238 195.048H134.735Z" fill="white"/>
<path d="M217.833 119.122V241.022H257.015V119.122H217.833Z" fill="white"/>
<path d="M343.598 241.022H386.089L360.316 195.571C371.112 189.127 377.556 178.331 377.556 162.832C377.556 134.621 359.619 119.122 326.01 119.122H274.463V241.022H313.645V203.407H324.616L343.598 241.022ZM313.645 153.428H326.01C334.02 153.428 338.025 156.389 338.025 162.832C338.025 169.275 334.02 172.061 326.01 172.061H313.645V153.428Z" fill="white"/>
</svg>
