<svg width="929" height="568" viewBox="0 0 929 568" fill="none" xmlns="http://www.w3.org/2000/svg">
<rect width="929" height="567.911" fill="#28292F"/>
<path d="M183.037 304.298C144.767 304.298 115.791 332.727 115.791 370.268C115.791 407.992 144.767 436.422 183.037 436.422C221.307 436.422 250.284 407.992 250.284 370.268C250.284 332.727 221.307 304.298 183.037 304.298ZM183.037 396.511C167.911 396.511 156.795 385.759 156.795 370.268C156.795 354.96 167.911 344.026 183.037 344.026C198.163 344.026 209.28 354.96 209.28 370.268C209.28 385.759 198.163 396.511 183.037 396.511Z" fill="#D11E43"/>
<path d="M343.243 308.536V373.049L303.15 308.536H266.155V436.104H307.159V371.592L347.252 436.104H384.247V308.536H343.243Z" fill="white"/>
<path d="M443.483 398.563V308.536H402.479V436.104H491.048V398.563H443.483Z" fill="white"/>
<path d="M503.743 308.536V436.104H544.747V308.536H503.743Z" fill="white"/>
<path d="M640.095 308.536V373.049L600.002 308.536H563.007V436.104H604.011V371.592L644.104 436.104H681.099V308.536H640.095Z" fill="white"/>
<path d="M740.335 401.843V386.535H781.704V357.012H740.335V342.798H787.535V308.536H699.331V436.104H789.175V401.843H740.335Z" fill="white"/>
<path d="M358.454 97.9562C358.939 96.8627 359.729 95.9515 360.823 95.2226C362.038 94.3721 363.313 93.9469 364.65 93.9469H390.163C391.378 93.9469 392.532 94.3721 393.626 95.2226C394.841 95.9515 395.691 96.8627 396.177 97.9562L449.391 221.879C449.877 222.973 449.756 224.127 449.027 225.342C448.419 226.557 447.144 227.164 445.2 227.164H414.037C412.7 227.164 411.425 226.8 410.21 226.071C409.116 225.22 408.266 224.248 407.658 223.155L402.738 212.221C402.13 211.127 401.219 210.216 400.004 209.487C398.911 208.637 397.757 208.211 396.542 208.211H358.089C356.753 208.211 355.477 208.637 354.262 209.487C353.169 210.216 352.379 211.127 351.893 212.221L346.79 223.155C346.304 224.248 345.454 225.22 344.239 226.071C343.145 226.8 341.991 227.164 340.776 227.164H309.431C308.823 227.164 308.216 227.043 307.609 226.8C306.88 226.557 306.333 226.192 305.968 225.706C305.482 225.22 305.179 224.613 305.057 223.884C304.936 223.155 305.118 222.305 305.604 221.333L358.454 97.9562ZM369.206 177.231H385.425C386.64 177.231 387.49 176.866 387.976 176.137C388.584 175.287 388.584 174.315 387.976 173.221C386.761 170.184 385.304 166.661 383.603 162.651C381.902 158.521 380.322 154.694 378.864 151.17C378.378 150.077 377.832 149.53 377.224 149.53C376.617 149.53 376.07 150.077 375.584 151.17L366.472 173.221C365.986 174.315 365.986 175.287 366.472 176.137C366.958 176.866 367.869 177.231 369.206 177.231Z" fill="white"/>
<path d="M495.526 227.164H468.008C466.672 227.164 465.578 226.739 464.728 225.889C463.999 225.038 463.634 224.005 463.634 222.791V98.3207C463.634 97.1057 463.999 96.073 464.728 95.2226C465.578 94.3721 466.672 93.9469 468.008 93.9469H495.526C496.741 93.9469 497.774 94.3721 498.625 95.2226C499.475 96.073 499.9 97.1057 499.9 98.3207V222.791C499.9 224.005 499.475 225.038 498.625 225.889C497.774 226.739 496.741 227.164 495.526 227.164Z" fill="white"/>
<path d="M555.819 227.164H528.666C527.451 227.164 526.418 226.739 525.568 225.889C524.717 225.038 524.292 224.005 524.292 222.791V98.1384C524.292 96.9235 524.717 95.8908 525.568 95.0403C526.418 94.1899 527.451 93.7646 528.666 93.7646H585.342C592.389 93.7646 598.889 94.9796 604.842 97.4095C610.795 99.7178 615.837 102.998 619.968 107.25C624.22 111.503 627.5 116.545 629.809 122.376C632.239 128.208 633.454 134.647 633.454 141.694C633.454 145.582 632.968 149.469 631.996 153.357C631.145 157.123 629.87 160.707 628.169 164.109C626.468 167.511 624.463 170.609 622.155 173.404C619.846 176.076 617.234 178.324 614.318 180.146C613.346 180.875 612.678 181.787 612.314 182.88C612.071 183.852 612.314 184.824 613.043 185.796C617.659 191.87 622.519 198.127 627.622 204.567C632.725 211.006 637.281 216.898 641.29 222.244C642.019 223.216 642.201 224.309 641.837 225.524C641.472 226.618 640.682 227.164 639.467 227.164H605.571C604.356 227.164 603.019 226.861 601.562 226.253C600.225 225.524 599.192 224.674 598.464 223.702C594.576 218.599 590.688 213.436 586.8 208.211C583.034 202.987 579.268 197.702 575.501 192.356C574.772 191.385 573.74 190.595 572.403 189.987C571.067 189.258 569.791 188.894 568.576 188.894H564.567C563.352 188.894 562.319 189.319 561.469 190.17C560.618 191.02 560.193 192.053 560.193 193.268V222.791C560.193 224.005 559.768 225.038 558.917 225.889C558.067 226.739 557.034 227.164 555.819 227.164ZM564.567 155.362H583.884C585.342 155.362 586.861 155.119 588.44 154.633C590.02 154.025 591.478 153.175 592.814 152.081C594.151 150.867 595.244 149.409 596.094 147.708C596.945 146.007 597.37 144.002 597.37 141.694C597.37 140.479 597.127 139.082 596.641 137.502C596.277 135.801 595.548 134.222 594.454 132.764C593.482 131.185 592.085 129.909 590.263 128.937C588.562 127.844 586.436 127.297 583.884 127.297H564.567C563.352 127.297 562.319 127.722 561.469 128.572C560.618 129.423 560.193 130.456 560.193 131.671V150.988C560.193 152.203 560.618 153.236 561.469 154.086C562.319 154.937 563.352 155.362 564.567 155.362Z" fill="white"/>
<path d="M226.452 248.41L123.16 267.928L101.783 278.846L103.521 290.427L226.452 248.41Z" fill="#FCFCFC"/>
<path d="M226.452 248.41L123.16 267.928L101.783 278.846L103.521 290.427L226.452 248.41Z" fill="#D11E43"/>
<path d="M103.521 290.427L110.793 295.467L226.452 248.41L103.521 290.427Z" fill="#A8A8A8"/>
<path d="M103.521 290.427L110.793 295.467L226.452 248.41L103.521 290.427Z" fill="#991A3B"/>
<path d="M226.452 248.41L99.3256 300.14L89.8485 315.046L107.725 315.397L226.452 248.41Z" fill="#FCFCFC"/>
<path d="M226.452 248.41L99.3256 300.14L89.8485 315.046L107.725 315.397L226.452 248.41Z" fill="#D11E43"/>
<path d="M226.452 248.41L178.409 281.946L167.271 281.798L226.452 248.41Z" fill="#E5E5E5"/>
<path d="M226.452 248.41L178.409 281.946L167.271 281.798L226.452 248.41Z" fill="#B71C41"/>
<path d="M122.592 307.009L129.908 309.672L173.798 281.884L167.271 281.798L122.592 307.009Z" fill="#CCCCCC"/>
<path d="M122.592 307.009L129.908 309.672L173.798 281.884L167.271 281.798L122.592 307.009Z" fill="#991A3B"/>
</svg>
