<svg width="2904" height="638" viewBox="0 0 2904 638" fill="none" xmlns="http://www.w3.org/2000/svg">
<rect x="0.424316" y="0.17749" width="2903.58" height="637.823" fill="#28292F"/>
<path d="M132.763 75.5016C149.991 75.5016 162.777 79.9824 171.121 88.9441C179.542 97.8285 183.752 110.807 183.752 127.881C183.752 136.456 182.67 144.259 180.507 151.289C178.421 158.242 175.215 164.23 170.889 169.251C166.563 174.273 161.116 178.136 154.549 180.84C147.983 183.544 140.218 184.896 131.257 184.896H122.334V244.923H89.7705V75.5016H132.763ZM130.33 103.198H122.334V157.084H128.012C133.188 157.084 137.514 156.118 140.991 154.186C144.468 152.255 147.094 149.165 148.871 144.916C150.648 140.667 151.536 135.066 151.536 128.113C151.536 119.46 149.76 113.164 146.206 109.224C142.729 105.206 137.437 103.198 130.33 103.198Z" fill="white"/>
<path d="M281.094 244.923L272.287 204.132H234.625L225.818 244.923H190.937L231.96 75.5016H274.025L315.743 244.923H281.094ZM267.304 175.857L258.149 131.01C257.531 127.302 256.913 123.671 256.295 120.117C255.754 116.563 255.213 113.164 254.673 109.919C254.209 106.597 253.784 103.507 253.398 100.648C253.166 103.352 252.819 106.327 252.355 109.571C251.891 112.816 251.351 116.215 250.733 119.769C250.115 123.323 249.419 126.915 248.647 130.546L239.608 175.857H267.304Z" fill="white"/>
<path d="M374.033 75.5016C391.261 75.5016 404.046 79.9824 412.39 88.9441C420.811 97.8285 425.021 110.807 425.021 127.881C425.021 136.456 423.94 144.259 421.777 151.289C419.691 158.242 416.485 164.23 412.158 169.251C407.832 174.273 402.385 178.136 395.819 180.84C389.252 183.544 381.488 184.896 372.526 184.896H363.603V244.923H331.04V75.5016H374.033ZM371.599 103.198H363.603V157.084H369.281C374.458 157.084 378.784 156.118 382.26 154.186C385.737 152.255 388.364 149.165 390.14 144.916C391.917 140.667 392.806 135.066 392.806 128.113C392.806 119.46 391.029 113.164 387.475 109.224C383.999 105.206 378.707 103.198 371.599 103.198Z" fill="white"/>
<path d="M523.522 244.923H447.387V75.5016H523.522V103.198H479.95V143.062H520.509V170.874H479.95V216.648H523.522V244.923Z" fill="white"/>
<path d="M588.069 75.5016C600.585 75.5016 610.976 77.3171 619.242 80.9481C627.508 84.5792 633.65 90.0257 637.668 97.2877C641.762 104.55 643.809 113.666 643.809 124.636C643.809 131.589 642.96 137.924 641.26 143.641C639.56 149.281 636.895 154.341 633.264 158.822C629.71 163.225 625.152 167.088 619.59 170.41L654.471 244.923H618.663L590.966 178.522H581.232V244.923H548.669V75.5016H588.069ZM587.838 102.966H581.232V152.796H588.533C595.795 152.796 601.28 150.594 604.988 146.191C608.774 141.787 610.667 135.143 610.667 126.259C610.667 118.301 608.774 112.43 604.988 108.644C601.28 104.859 595.563 102.966 587.838 102.966Z" fill="white"/>
<path d="M881.255 75.5016L847.996 244.923H810.797L795.153 164.268C794.69 161.487 794.187 158.513 793.647 155.345C793.183 152.178 792.681 148.856 792.14 145.379C791.677 141.903 791.252 138.31 790.865 134.602C790.479 130.817 790.093 126.915 789.707 122.898C789.398 125.911 789.05 129.156 788.664 132.632C788.277 136.031 787.852 139.547 787.389 143.178C786.925 146.731 786.423 150.285 785.882 153.839C785.342 157.393 784.762 160.792 784.144 164.037L768.5 244.923H731.533L698.043 75.5016H729.795L745.323 161.139C745.941 164.539 746.521 168.208 747.062 172.148C747.68 176.011 748.259 179.99 748.8 184.084C749.418 188.179 749.959 192.196 750.422 196.136C750.963 200.076 751.388 203.746 751.697 207.145C752.16 203.205 752.663 199.149 753.203 194.977C753.821 190.806 754.439 186.711 755.057 182.694C755.753 178.677 756.409 174.891 757.027 171.337C757.646 167.706 758.225 164.461 758.766 161.603L776.148 75.5016H803.381L819.605 161.371C820.223 164.461 820.841 167.861 821.459 171.569C822.154 175.2 822.811 179.024 823.429 183.041C824.047 187.059 824.626 191.115 825.167 195.209C825.708 199.227 826.21 203.205 826.673 207.145C827.06 202.51 827.601 197.566 828.296 192.312C828.991 187.059 829.725 181.767 830.498 176.436C831.347 171.028 832.197 165.929 833.047 161.139L848.807 75.5016H881.255Z" fill="white"/>
<path d="M897.015 244.923V75.5016H929.578V244.923H897.015Z" fill="white"/>
<path d="M1077.33 244.923H1039.09L989.49 126.722H988.563C989.026 132.207 989.374 137.383 989.606 142.25C989.915 147.04 990.108 151.444 990.185 155.461C990.34 159.479 990.417 163.11 990.417 166.354V244.923H960.055V75.5016H998.065L1047.43 191.037H1048.36C1048.05 185.707 1047.78 180.762 1047.55 176.204C1047.32 171.569 1047.12 167.281 1046.97 163.341C1046.81 159.401 1046.74 155.809 1046.74 152.564V75.5016H1077.33V244.923Z" fill="white"/>
<path d="M1163.66 149.551H1216.62V237.854C1208.59 241.022 1200.32 243.378 1191.82 244.923C1183.4 246.468 1174.83 247.241 1166.1 247.241C1152.11 247.241 1140.41 243.687 1130.98 236.58C1121.64 229.395 1114.57 219.274 1109.78 206.218C1105.06 193.162 1102.71 177.672 1102.71 159.749C1102.71 142.057 1105.37 126.761 1110.7 113.859C1116.11 100.88 1123.99 90.8369 1134.34 83.7293C1144.7 76.6218 1157.33 73.0681 1172.24 73.0681C1180.43 73.0681 1188.08 74.0724 1195.18 76.081C1202.29 78.0124 1208.66 80.5619 1214.3 83.7293L1204.8 110.614C1199.93 107.524 1194.87 105.168 1189.62 103.545C1184.44 101.923 1179.04 101.112 1173.4 101.112C1165.28 101.112 1158.49 103.43 1153 108.065C1147.52 112.623 1143.38 119.344 1140.6 128.229C1137.82 137.036 1136.43 147.852 1136.43 160.676C1136.43 172.496 1137.55 182.81 1139.79 191.617C1142.11 200.347 1145.58 207.107 1150.22 211.896C1154.93 216.686 1160.92 219.081 1168.18 219.081C1171.19 219.081 1174.09 218.849 1176.87 218.386C1179.73 217.922 1182.4 217.266 1184.87 216.416V177.016H1163.66V149.551Z" fill="white"/>
<path d="M1325.67 195.325C1325.67 205.523 1323.62 214.523 1319.53 222.326C1315.43 230.129 1309.64 236.232 1302.14 240.636C1294.73 245.039 1285.96 247.241 1275.84 247.241C1271.13 247.241 1266.57 246.932 1262.16 246.314C1257.76 245.773 1253.43 244.846 1249.18 243.533C1244.94 242.142 1240.69 240.327 1236.44 238.086V204.828C1242.62 208.845 1249.03 211.896 1255.67 213.982C1262.32 216.068 1268.46 217.111 1274.1 217.111C1278.27 217.111 1281.71 216.3 1284.41 214.678C1287.19 213.055 1289.24 210.853 1290.55 208.072C1291.95 205.291 1292.64 202.162 1292.64 198.686C1292.64 194.977 1292.06 191.733 1290.9 188.952C1289.74 186.093 1287.5 183.273 1284.18 180.492C1280.94 177.634 1276.15 174.35 1269.81 170.642C1264.87 167.706 1260.39 164.693 1256.37 161.603C1252.43 158.513 1249.03 155.114 1246.17 151.405C1243.39 147.62 1241.27 143.255 1239.8 138.31C1238.33 133.366 1237.6 127.533 1237.6 120.812C1237.52 111.232 1239.37 102.85 1243.16 95.6653C1247.02 88.4806 1252.55 82.9182 1259.73 78.9781C1266.99 74.9608 1275.68 72.9908 1285.8 73.0681C1292.68 73.0681 1299.4 73.9951 1305.97 75.8493C1312.61 77.7034 1318.99 80.3301 1325.09 83.7293L1316.17 112.468C1310.68 109.146 1305.5 106.713 1300.64 105.168C1295.77 103.545 1291.21 102.734 1286.96 102.734C1283.25 102.734 1280.13 103.468 1277.58 104.936C1275.1 106.327 1273.21 108.258 1271.9 110.73C1270.66 113.202 1270.04 116.022 1270.04 119.19C1270.04 123.207 1270.66 126.606 1271.9 129.387C1273.13 132.169 1275.45 134.911 1278.85 137.615C1282.33 140.242 1287.31 143.409 1293.8 147.118C1300.83 151.212 1306.7 155.577 1311.41 160.212C1316.13 164.771 1319.68 169.908 1322.08 175.625C1324.47 181.265 1325.67 187.831 1325.67 195.325Z" fill="white"/>
<path d="M1448.85 101.112C1443.91 101.112 1439.58 102.58 1435.87 105.515C1432.16 108.451 1429.07 112.623 1426.6 118.031C1424.21 123.361 1422.39 129.658 1421.16 136.92C1420 144.182 1419.42 152.101 1419.42 160.676C1419.42 173.269 1420.61 183.93 1423.01 192.66C1425.4 201.312 1428.92 207.879 1433.56 212.36C1438.19 216.841 1443.83 219.081 1450.47 219.081C1455.73 219.081 1460.71 218.193 1465.42 216.416C1470.14 214.639 1474.81 212.514 1479.44 210.042V239.013C1474.58 241.717 1469.32 243.764 1463.68 245.155C1458.12 246.546 1452.14 247.241 1445.72 247.241C1432.98 247.241 1422.12 243.88 1413.16 237.159C1404.28 230.361 1397.48 220.51 1392.76 207.609C1388.05 194.63 1385.7 178.908 1385.7 160.444C1385.7 147.774 1387.01 136.147 1389.64 125.563C1392.34 114.902 1396.28 105.67 1401.46 97.8671C1406.63 89.9871 1412.97 83.8839 1420.46 79.5575C1428.03 75.2312 1436.68 73.0681 1446.42 73.0681C1453.22 73.0681 1459.78 73.9179 1466.12 75.6175C1472.45 77.3171 1478.56 79.9438 1484.43 83.4976L1475.16 110.383C1470.99 107.524 1466.78 105.284 1462.53 103.661C1458.28 101.962 1453.72 101.112 1448.85 101.112Z" fill="white"/>
<path d="M1612.48 244.923H1579.92V170.874H1537.97V244.923H1505.4V75.5016H1537.97V142.598H1579.92V75.5016H1612.48V244.923Z" fill="white"/>
<path d="M1717.82 244.923L1709.01 204.132H1671.35L1662.54 244.923H1627.66L1668.68 75.5016H1710.75L1752.47 244.923H1717.82ZM1704.03 175.857L1694.87 131.01C1694.25 127.302 1693.64 123.671 1693.02 120.117C1692.48 116.563 1691.94 113.164 1691.4 109.919C1690.93 106.597 1690.51 103.507 1690.12 100.648C1689.89 103.352 1689.54 106.327 1689.08 109.571C1688.61 112.816 1688.07 116.215 1687.46 119.769C1686.84 123.323 1686.14 126.915 1685.37 130.546L1676.33 175.857H1704.03Z" fill="white"/>
<path d="M1830.92 244.923L1797.43 119.885H1796.5C1796.89 125.061 1797.2 129.928 1797.43 134.486C1797.66 139.044 1797.82 143.255 1797.89 147.118C1798.05 150.98 1798.12 154.457 1798.12 157.547V244.923H1767.76V75.5016H1812.61L1843.9 191.501H1844.71L1876 75.5016H1920.61V244.923H1889.56V157.315C1889.56 153.839 1889.6 150.208 1889.67 146.422C1889.83 142.56 1889.98 138.465 1890.14 134.139C1890.37 129.735 1890.64 125.061 1890.95 120.117H1890.02L1856.3 244.923H1830.92Z" fill="white"/>
<path d="M1994.08 75.5016C2011.31 75.5016 2024.1 79.9824 2032.44 88.9441C2040.86 97.8285 2045.07 110.807 2045.07 127.881C2045.07 136.456 2043.99 144.259 2041.83 151.289C2039.74 158.242 2036.54 164.23 2032.21 169.251C2027.88 174.273 2022.44 178.136 2015.87 180.84C2009.3 183.544 2001.54 184.896 1992.58 184.896H1983.65V244.923H1951.09V75.5016H1994.08ZM1991.65 103.198H1983.65V157.084H1989.33C1994.51 157.084 1998.83 156.118 2002.31 154.186C2005.79 152.255 2008.41 149.165 2010.19 144.916C2011.97 140.667 2012.86 135.066 2012.86 128.113C2012.86 119.46 2011.08 113.164 2007.53 109.224C2004.05 105.206 1998.76 103.198 1991.65 103.198Z" fill="white"/>
<path d="M2067.44 244.923V75.5016H2100V244.923H2067.44Z" fill="white"/>
<path d="M2245.78 159.981C2245.78 173.423 2244.55 185.552 2242.07 196.368C2239.6 207.107 2235.89 216.261 2230.95 223.832C2226 231.403 2219.75 237.198 2212.18 241.215C2204.68 245.232 2195.88 247.241 2185.75 247.241C2175.56 247.241 2166.67 245.232 2159.1 241.215C2151.53 237.12 2145.27 231.249 2140.33 223.601C2135.38 215.952 2131.68 206.759 2129.2 196.02C2126.73 185.282 2125.5 173.191 2125.5 159.749C2125.5 140.744 2127.77 124.791 2132.33 111.889C2136.89 98.9873 2143.65 89.2531 2152.61 82.6864C2161.57 76.1197 2172.62 72.8363 2185.75 72.8363C2199.43 72.8363 2210.67 76.3514 2219.48 83.3817C2228.36 90.412 2234.97 100.455 2239.29 113.511C2243.62 126.49 2245.78 141.98 2245.78 159.981ZM2159.22 159.981C2159.22 172.96 2160.22 183.814 2162.23 192.544C2164.24 201.197 2167.21 207.725 2171.15 212.128C2175.09 216.455 2179.96 218.618 2185.75 218.618C2191.63 218.618 2196.49 216.493 2200.36 212.244C2204.3 207.995 2207.23 201.544 2209.16 192.892C2211.17 184.239 2212.18 173.269 2212.18 159.981C2212.18 140.126 2209.97 125.37 2205.57 115.713C2201.17 105.979 2194.56 101.112 2185.75 101.112C2179.96 101.112 2175.09 103.314 2171.15 107.717C2167.21 112.121 2164.24 118.688 2162.23 127.417C2160.22 136.147 2159.22 147.002 2159.22 159.981Z" fill="white"/>
<path d="M2388.43 244.923H2350.19L2300.6 126.722H2299.67C2300.13 132.207 2300.48 137.383 2300.71 142.25C2301.02 147.04 2301.21 151.444 2301.29 155.461C2301.45 159.479 2301.52 163.11 2301.52 166.354V244.923H2271.16V75.5016H2309.17L2358.54 191.037H2359.46C2359.15 185.707 2358.88 180.762 2358.65 176.204C2358.42 171.569 2358.23 167.281 2358.07 163.341C2357.92 159.401 2357.84 155.809 2357.84 152.564V75.5016H2388.43V244.923Z" fill="white"/>
<path d="M2500.49 195.325C2500.49 205.523 2498.45 214.523 2494.35 222.326C2490.26 230.129 2484.46 236.232 2476.97 240.636C2469.55 245.039 2460.78 247.241 2450.66 247.241C2445.95 247.241 2441.39 246.932 2436.99 246.314C2432.59 245.773 2428.26 244.846 2424.01 243.533C2419.76 242.142 2415.51 240.327 2411.26 238.086V204.828C2417.44 208.845 2423.86 211.896 2430.5 213.982C2437.14 216.068 2443.29 217.111 2448.93 217.111C2453.1 217.111 2456.54 216.3 2459.24 214.678C2462.02 213.055 2464.07 210.853 2465.38 208.072C2466.77 205.291 2467.47 202.162 2467.47 198.686C2467.47 194.977 2466.89 191.733 2465.73 188.952C2464.57 186.093 2462.33 183.273 2459.01 180.492C2455.76 177.634 2450.97 174.35 2444.64 170.642C2439.69 167.706 2435.21 164.693 2431.2 161.603C2427.26 158.513 2423.86 155.114 2421 151.405C2418.22 147.62 2416.09 143.255 2414.62 138.31C2413.16 133.366 2412.42 127.533 2412.42 120.812C2412.35 111.232 2414.2 102.85 2417.99 95.6653C2421.85 88.4806 2427.37 82.9182 2434.56 78.9781C2441.82 74.9608 2450.51 72.9908 2460.63 73.0681C2467.51 73.0681 2474.23 73.9951 2480.79 75.8493C2487.44 77.7034 2493.81 80.3301 2499.91 83.7293L2490.99 112.468C2485.51 109.146 2480.33 106.713 2475.46 105.168C2470.6 103.545 2466.04 102.734 2461.79 102.734C2458.08 102.734 2454.95 103.468 2452.4 104.936C2449.93 106.327 2448.04 108.258 2446.72 110.73C2445.49 113.202 2444.87 116.022 2444.87 119.19C2444.87 123.207 2445.49 126.606 2446.72 129.387C2447.96 132.169 2450.28 134.911 2453.68 137.615C2457.15 140.242 2462.14 143.409 2468.63 147.118C2475.66 151.212 2481.53 155.577 2486.24 160.212C2490.95 164.771 2494.51 169.908 2496.9 175.625C2499.3 181.265 2500.49 187.831 2500.49 195.325Z" fill="white"/>
<path d="M2629.94 244.923H2597.37V170.874H2555.42V244.923H2522.86V75.5016H2555.42V142.598H2597.37V75.5016H2629.94V244.923Z" fill="white"/>
<path d="M2660.3 244.923V75.5016H2692.86V244.923H2660.3Z" fill="white"/>
<path d="M2766.33 75.5016C2783.56 75.5016 2796.34 79.9824 2804.69 88.9441C2813.11 97.8285 2817.32 110.807 2817.32 127.881C2817.32 136.456 2816.24 144.259 2814.07 151.289C2811.99 158.242 2808.78 164.23 2804.46 169.251C2800.13 174.273 2794.68 178.136 2788.12 180.84C2781.55 183.544 2773.79 184.896 2764.82 184.896H2755.9V244.923H2723.34V75.5016H2766.33ZM2763.9 103.198H2755.9V157.084H2761.58C2766.76 157.084 2771.08 156.118 2774.56 154.186C2778.04 152.255 2780.66 149.165 2782.44 144.916C2784.22 140.667 2785.1 135.066 2785.1 128.113C2785.1 119.46 2783.33 113.164 2779.77 109.224C2776.3 105.206 2771 103.198 2763.9 103.198Z" fill="white"/>
<path d="M706.633 451.138V479.312C706.633 480.857 706.585 482.789 706.488 485.107C706.44 487.376 706.295 490.08 706.053 493.218H706.778C708.902 489.066 711.437 486.048 714.383 484.165C717.376 482.282 720.732 481.34 724.45 481.34C731.789 481.34 737.511 484.986 741.615 492.277C745.768 499.568 747.844 509.828 747.844 523.058C747.844 531.846 746.902 539.403 745.019 545.728C743.184 552.005 740.505 556.834 736.98 560.213C733.455 563.593 729.182 565.283 724.16 565.283C720.491 565.283 717.328 564.559 714.672 563.111C712.017 561.614 709.385 558.934 706.778 555.071H705.764L702.939 563.835H687.367V451.138H706.633ZM717.931 497.999C715.083 497.999 712.813 498.916 711.123 500.751C709.482 502.537 708.323 505.145 707.647 508.573C706.971 511.953 706.633 516.081 706.633 520.958V524.941C706.633 533.246 707.55 539.33 709.385 543.193C711.22 547.056 714.117 548.987 718.076 548.987C721.408 548.987 723.943 546.863 725.681 542.614C727.419 538.365 728.289 531.798 728.289 522.913C728.289 514.56 727.444 508.331 725.754 504.227C724.112 500.075 721.505 497.999 717.931 497.999Z" fill="#D11E43"/>
<path d="M753.638 482.716H773.845L783.333 521.972C783.768 523.758 784.178 525.569 784.564 527.404C784.951 529.191 785.265 530.929 785.506 532.619C785.796 534.309 786.013 535.902 786.158 537.399H786.737C786.979 535.419 787.341 533.198 787.824 530.736C788.306 528.225 788.934 525.376 789.707 522.189L798.615 482.716H818.605L794.415 571.729C792.628 578.393 790.503 583.752 788.041 587.808C785.627 591.864 782.778 594.81 779.495 596.644C776.211 598.527 772.348 599.469 767.906 599.469C766.265 599.469 764.695 599.348 763.198 599.107C761.702 598.865 760.205 598.576 758.708 598.238V581.217C759.674 581.507 760.639 581.748 761.605 581.942C762.619 582.135 763.585 582.231 764.502 582.231C766.482 582.231 768.075 581.845 769.282 581.072C770.538 580.3 771.648 578.876 772.614 576.799C773.58 574.723 774.618 571.729 775.728 567.818L776.96 562.966L753.638 482.716Z" fill="#D11E43"/>
<path d="M1423.68 384.065C1369.36 384.065 1328.22 424.421 1328.22 477.713C1328.22 531.263 1369.36 571.619 1423.68 571.619C1478.01 571.619 1519.14 531.263 1519.14 477.713C1519.14 424.421 1478.01 384.065 1423.68 384.065ZM1423.68 514.965C1402.21 514.965 1386.43 499.702 1386.43 477.713C1386.43 455.982 1402.21 440.46 1423.68 440.46C1445.15 440.46 1460.93 455.982 1460.93 477.713C1460.93 499.702 1445.15 514.965 1423.68 514.965Z" fill="#D11E43"/>
<path d="M1647.99 387.169V478.747L1591.08 387.169H1538.57V568.256H1596.77V476.678L1653.69 568.256H1706.2V387.169H1647.99Z" fill="white"/>
<path d="M1790.29 514.965V387.169H1732.08V568.256H1857.81V514.965H1790.29Z" fill="white"/>
<path d="M1875.83 387.169V568.256H1934.04V387.169H1875.83Z" fill="white"/>
<path d="M2069.39 387.169V478.747L2012.47 387.169H1959.96V568.256H2018.16V476.678L2075.08 568.256H2127.59V387.169H2069.39Z" fill="white"/>
<path d="M2211.68 519.621V497.891H2270.4V455.982H2211.68V435.804H2278.68V387.169H2153.47V568.256H2281.01V519.621H2211.68Z" fill="white"/>
<path d="M1452.18 278.409C1453.96 277.915 1454.5 279.155 1455.09 280.202C1462.34 293.064 1469.53 305.975 1476.87 318.79C1479.25 322.953 1475.46 323.23 1473.53 324.313C1443.18 341.471 1412.76 358.533 1382.35 375.606C1367.86 383.74 1353.32 391.79 1338.94 400.092C1335.47 402.089 1333.63 402.403 1331.47 398.312C1325.11 386.364 1318.4 374.596 1311.57 362.913C1309.7 359.712 1309.88 358.136 1313.27 356.247C1358.76 330.822 1404.17 305.265 1449.6 279.745C1450.49 279.239 1451.42 278.794 1452.19 278.397L1452.18 278.409Z" fill="#D11E43"/>
<path d="M978.966 562.181H1041.57L981.036 381.094H910.153L849.618 562.181H912.223L919.983 534.242H971.205L978.966 562.181ZM931.107 493.885L945.594 441.37L960.081 493.885H931.107Z" fill="white"/>
<path d="M1054.55 381.094V562.181H1112.76V381.094H1054.55Z" fill="white"/>
<path d="M1241.38 562.181H1304.5L1266.22 494.661C1282.26 485.089 1291.83 469.05 1291.83 446.026C1291.83 404.117 1265.18 381.094 1215.25 381.094H1138.68V562.181H1196.89V506.302H1213.18L1241.38 562.181ZM1196.89 432.057H1215.25C1227.15 432.057 1233.1 436.454 1233.1 446.026C1233.1 455.598 1227.15 459.737 1215.25 459.737H1196.89V432.057Z" fill="white"/>
</svg>
