<svg width="155" height="83" viewBox="0 0 155 83" fill="none" xmlns="http://www.w3.org/2000/svg">
<g clip-path="url(#clip0_29_218)">
<path d="M155 0L37.7969 24.1833L13.5398 37.7109L15.5087 52.0592L155 0Z" fill="#FCFCFC"/>
<path style="mix-blend-mode:multiply" d="M155 0L37.7969 24.1833L13.5398 37.7109L15.5087 52.0592L155 0Z" fill="url(#paint0_linear_29_218)"/>
<path d="M15.5088 52.0592L23.7654 58.3129L155 0L15.5088 52.0592Z" fill="#A8A8A8"/>
<path style="mix-blend-mode:multiply" d="M15.5088 52.0592L23.7654 58.3129L155 0L15.5088 52.0592Z" fill="url(#paint1_linear_29_218)"/>
<path d="M155 0L10.7528 64.0942L0 82.5634L20.2836 83L155 0Z" fill="#FCFCFC"/>
<path style="mix-blend-mode:multiply" d="M155 0L10.7528 64.0942L0 82.5634L20.2836 83L155 0Z" fill="url(#paint2_linear_29_218)"/>
<path d="M155 0L100.485 41.5567L87.8531 41.3699L155 0Z" fill="#E5E5E5"/>
<path style="mix-blend-mode:multiply" d="M155 0L100.485 41.5567L87.8531 41.3699L155 0Z" fill="url(#paint3_linear_29_218)"/>
<path d="M37.1566 72.6045L45.4529 75.9045L95.2581 41.479L87.8531 41.3698L37.1566 72.6045Z" fill="#CCCCCC"/>
<path style="mix-blend-mode:multiply" d="M37.1566 72.6045L45.4529 75.9045L95.2581 41.479L87.8531 41.3698L37.1566 72.6045Z" fill="url(#paint4_linear_29_218)"/>
</g>
<defs>
<linearGradient id="paint0_linear_29_218" x1="36.7813" y1="29.285" x2="33.8969" y2="20.3203" gradientUnits="userSpaceOnUse">
<stop stop-color="#FCFCFC"/>
<stop offset="0.09" stop-color="#FCFCFC" stop-opacity="0.97"/>
<stop offset="0.21" stop-color="#FCFCFC" stop-opacity="0.89"/>
<stop offset="0.36" stop-color="#FCFCFC" stop-opacity="0.77"/>
<stop offset="0.53" stop-color="#FCFCFC" stop-opacity="0.59"/>
<stop offset="0.71" stop-color="#FCFCFC" stop-opacity="0.36"/>
<stop offset="0.91" stop-color="#FCFCFC" stop-opacity="0.09"/>
<stop offset="0.97" stop-color="#FCFCFC" stop-opacity="0"/>
</linearGradient>
<linearGradient id="paint1_linear_29_218" x1="38.4171" y1="31.7575" x2="36.2969" y2="26.2758" gradientUnits="userSpaceOnUse">
<stop stop-color="#A8A8A8"/>
<stop offset="0.11" stop-color="#A8A8A8" stop-opacity="0.96"/>
<stop offset="0.28" stop-color="#A8A8A8" stop-opacity="0.84"/>
<stop offset="0.47" stop-color="#A8A8A8" stop-opacity="0.65"/>
<stop offset="0.69" stop-color="#A8A8A8" stop-opacity="0.39"/>
<stop offset="0.93" stop-color="#A8A8A8" stop-opacity="0.05"/>
<stop offset="0.96" stop-color="#A8A8A8" stop-opacity="0"/>
</linearGradient>
<linearGradient id="paint2_linear_29_218" x1="29.441" y1="53.9105" x2="26.3972" y2="43.3124" gradientUnits="userSpaceOnUse">
<stop stop-color="#FCFCFC"/>
<stop offset="0.09" stop-color="#FCFCFC" stop-opacity="0.97"/>
<stop offset="0.21" stop-color="#FCFCFC" stop-opacity="0.89"/>
<stop offset="0.36" stop-color="#FCFCFC" stop-opacity="0.77"/>
<stop offset="0.53" stop-color="#FCFCFC" stop-opacity="0.59"/>
<stop offset="0.71" stop-color="#FCFCFC" stop-opacity="0.36"/>
<stop offset="0.91" stop-color="#FCFCFC" stop-opacity="0.09"/>
<stop offset="0.97" stop-color="#FCFCFC" stop-opacity="0"/>
</linearGradient>
<linearGradient id="paint3_linear_29_218" x1="70.8508" y1="18.5833" x2="74.579" y2="24.663" gradientUnits="userSpaceOnUse">
<stop stop-color="#BFBFBF"/>
<stop offset="0.11" stop-color="#BFBFBF" stop-opacity="0.96"/>
<stop offset="0.26" stop-color="#C0C0C0" stop-opacity="0.86"/>
<stop offset="0.43" stop-color="#C2C2C2" stop-opacity="0.69"/>
<stop offset="0.63" stop-color="#C6C6C6" stop-opacity="0.46"/>
<stop offset="0.85" stop-color="#C9C9C9" stop-opacity="0.16"/>
<stop offset="0.96" stop-color="#CCCCCC" stop-opacity="0"/>
</linearGradient>
<linearGradient id="paint4_linear_29_218" x1="8.08656" y1="55.1411" x2="11.2443" y2="59.8384" gradientUnits="userSpaceOnUse">
<stop stop-color="#CCCCCC"/>
<stop offset="0.2" stop-color="#CCCCCC" stop-opacity="0.82"/>
<stop offset="0.63" stop-color="#CCCCCC" stop-opacity="0.36"/>
<stop offset="0.96" stop-color="#CCCCCC" stop-opacity="0"/>
</linearGradient>
<clipPath id="clip0_29_218">
<rect width="155" height="83" fill="white"/>
</clipPath>
</defs>
</svg>
