<svg width="298" height="159" viewBox="0 0 298 159" fill="none" xmlns="http://www.w3.org/2000/svg">
<g clip-path="url(#clip0_29_178)">
<path d="M298 0L72.6669 46.3248L26.0345 72.2394L29.8167 99.7295L298 0Z" fill="#FCFCFC"/>
<path d="M298 0L72.6669 46.3248L26.0345 72.2394L29.8167 99.7295L298 0Z" fill="#D11E43"/>
<path d="M29.8167 99.7295L45.6914 111.707L298 0L29.8167 99.7295Z" fill="#A8A8A8"/>
<path d="M29.8167 99.7295L45.6914 111.707L298 0L29.8167 99.7295Z" fill="#991A3B"/>
<path d="M298 0L20.6719 122.781L0 158.161L38.9985 159L298 0Z" fill="#FCFCFC"/>
<path d="M298 0L20.6719 122.781L0 158.161L38.9985 159L298 0Z" fill="#D11E43"/>
<path d="M298 0L193.19 79.6066L168.903 79.2498L298 0Z" fill="#E5E5E5"/>
<path d="M298 0L193.19 79.6066L168.903 79.2498L298 0Z" fill="#B71C41"/>
<path d="M71.434 139.086L87.3875 145.406L183.141 79.4583L168.902 79.2498L71.434 139.086Z" fill="#CCCCCC"/>
<path d="M71.434 139.086L87.3875 145.406L183.141 79.4583L168.902 79.2498L71.434 139.086Z" fill="#991A3B"/>
</g>
<defs>
<clipPath id="clip0_29_178">
<rect width="298" height="159" fill="white"/>
</clipPath>
</defs>
</svg>
