<svg width="98" height="98" viewBox="0 0 98 98" fill="none" xmlns="http://www.w3.org/2000/svg">
<path d="M97.3874 48.8819C97.3874 22.1144 75.6857 0.415527 48.9148 0.415527C22.1438 0.415527 0.442139 22.1144 0.442139 48.8819C0.442139 73.074 18.1707 93.129 41.352 96.7729V62.9095H29.0489V48.9093H41.352V38.2242C41.352 26.0871 48.5859 19.3747 59.656 19.3747C64.9718 19.3747 70.5069 20.3336 70.5069 20.3336V32.2515H64.3964C58.3681 32.2515 56.5048 35.9776 56.5048 39.8133V48.9093H69.9588L67.8215 62.9095H56.5323V96.7729C79.7136 93.129 97.4421 73.074 97.4421 48.8819H97.3874Z" fill="#337FFF"/>
<path d="M67.7941 62.9095L69.9314 48.9094H56.4774V39.8134C56.4774 35.9777 58.3681 32.2516 64.369 32.2516H70.4795V20.3337C70.4795 20.3337 64.9445 19.3748 59.6286 19.3748C48.5586 19.3748 41.3246 26.0872 41.3246 38.2243V48.9094H29.0215V62.9095H41.3246V96.773C43.7907 97.1565 46.3116 97.3757 48.8874 97.3757C51.4631 97.3757 53.984 97.1839 56.4501 96.773V62.9095H67.7393H67.7941Z" fill="white"/>
</svg>
