<svg width="98" height="98" viewBox="0 0 98 98" fill="none" xmlns="http://www.w3.org/2000/svg">
<path d="M48.9484 97.0527C75.7377 97.0527 97.4547 75.3386 97.4547 48.5527C97.4547 21.7669 75.7377 0.0527344 48.9484 0.0527344C22.1591 0.0527344 0.442139 21.7669 0.442139 48.5527C0.442139 75.3386 22.1591 97.0527 48.9484 97.0527Z" fill="url(#paint0_linear_29_155)"/>
<path d="M64.0021 30.2109C62.1649 30.2109 60.6568 31.6914 60.6568 33.5558C60.6568 35.4201 62.1375 36.9006 64.0021 36.9006C65.8666 36.9006 67.3473 35.4201 67.3473 33.5558C67.3473 31.6914 65.8666 30.2109 64.0021 30.2109Z" fill="white"/>
<path d="M49.1952 34.488C41.4627 34.488 35.1835 40.7664 35.1835 48.4979C35.1835 56.2294 41.4627 62.5078 49.1952 62.5078C56.9277 62.5078 63.2069 56.2294 63.2069 48.4979C63.2069 40.7664 56.9277 34.488 49.1952 34.488ZM49.1952 57.4632C44.2596 57.4632 40.2288 53.4329 40.2288 48.4979C40.2288 43.5629 44.2596 39.5327 49.1952 39.5327C54.1308 39.5327 58.1616 43.5629 58.1616 48.4979C58.1616 53.4329 54.1308 57.4632 49.1952 57.4632Z" fill="white"/>
<path d="M60.3003 76.929H37.5964C28.1639 76.929 20.5137 69.2523 20.5137 59.8484V37.1474C20.5137 27.7161 28.1639 20.0669 37.5964 20.0669H60.3003C69.7329 20.0669 77.3831 27.7161 77.3831 37.1474V59.8484C77.3831 69.2797 69.7054 76.929 60.3003 76.929ZM37.5964 25.4131C31.1253 25.4131 25.8606 30.6771 25.8606 37.1474V59.8484C25.8606 66.3187 31.1253 71.5827 37.5964 71.5827H60.3003C66.7715 71.5827 72.0361 66.3187 72.0361 59.8484V37.1474C72.0361 30.6771 66.7715 25.4131 60.3003 25.4131H37.5964Z" fill="white"/>
<defs>
<linearGradient id="paint0_linear_29_155" x1="3.5132" y1="10.1969" x2="100.515" y2="92.1301" gradientUnits="userSpaceOnUse">
<stop stop-color="#FBE18A"/>
<stop offset="0.21" stop-color="#FCBB45"/>
<stop offset="0.38" stop-color="#F75274"/>
<stop offset="0.52" stop-color="#D53692"/>
<stop offset="0.74" stop-color="#8F39CE"/>
<stop offset="1" stop-color="#5B4FE9"/>
</linearGradient>
</defs>
</svg>
